#tb 0: 1/180000
0,      64800,      64800,        0,   622080, 0x4440caef
0,      68400,      68400,        0,   622080, 0xa5cea88b
0,      72000,      72000,        0,   622080, 0xce67e69d
0,      75600,      75600,        0,   622080, 0x9a57891f
0,      79200,      79200,        0,   622080, 0x1dbdc653
0,      82800,      82800,        0,   622080, 0xc171c0c5
0,      86400,      86400,        0,   622080, 0x82c591d1
0,      90000,      90000,        0,   622080, 0x20db9890
0,      93600,      93600,        0,   622080, 0x8193740b
0,      97200,      97200,        0,   622080, 0xdb181d52
0,     100800,     100800,        0,   622080, 0xcb219711
0,     104400,     104400,        0,   622080, 0xc2b913d1
0,     108000,     108000,        0,   622080, 0x1870783b
0,     111600,     111600,        0,   622080, 0xf1d9c5fb
0,     115200,     115200,        0,   622080, 0x7080590b
0,     118800,     118800,        0,   622080, 0x669c5775
0,     122400,     122400,        0,   622080, 0x6df4175d
0,     126000,     126000,        0,   622080, 0x01921a16
0,     129600,     129600,        0,   622080, 0x6b530e95
0,     133200,     133200,        0,   622080, 0xd5047bc9
0,     136800,     136800,        0,   622080, 0x7f9d66f7
0,     140400,     140400,        0,   622080, 0xa8b006eb
0,     144000,     144000,        0,   622080, 0x338cda81
0,     147600,     147600,        0,   622080, 0xf0e125a7
0,     151200,     151200,        0,   622080, 0xb13797f8
0,     154800,     154800,        0,   622080, 0x4afe2976
0,     158400,     158400,        0,   622080, 0xb51e7ca4
0,     162000,     162000,        0,   622080, 0x637fcbfe
0,     165600,     165600,        0,   622080, 0x353eed75
0,     169200,     169200,        0,   622080, 0xd9a8f5ac
0,     172800,     172800,        0,   622080, 0xf93e92b0
0,     176400,     176400,        0,   622080, 0x4540039f
0,     180000,     180000,        0,   622080, 0xd0811094
0,     183600,     183600,        0,   622080, 0x3039906f
0,     187200,     187200,        0,   622080, 0xb04a3141
0,     190800,     190800,        0,   622080, 0x52872cf9
0,     194400,     194400,        0,   622080, 0x4ab84909
0,     198000,     198000,        0,   622080, 0x82de12ee
0,     201600,     201600,        0,   622080, 0xa0fcb8fb
0,     205200,     205200,        0,   622080, 0x7e849cc9
0,     208800,     208800,        0,   622080, 0x9003aebb
0,     212400,     212400,        0,   622080, 0xffe6f770
0,     216000,     216000,        0,   622080, 0x153faa3e
0,     219600,     219600,        0,   622080, 0xb67f3233
0,     223200,     223200,        0,   622080, 0xae724063
0,     226800,     226800,        0,   622080, 0x15fe44b4
0,     230400,     230400,        0,   622080, 0xeb4de77a
0,     234000,     234000,        0,   622080, 0x380f8563
0,     237600,     237600,        0,   622080, 0x209ed8c7
0,     241200,     241200,        0,   622080, 0xb964d70f
0,     244800,     244800,        0,   622080, 0xe2bbac96
0,     248400,     248400,        0,   622080, 0x4f60f7f4
0,     252000,     252000,        0,   622080, 0xe945441e
0,     255600,     255600,        0,   622080, 0xd0afb742
0,     259200,     259200,        0,   622080, 0x8f8cbd5f
0,     262800,     262800,        0,   622080, 0xb9a15294
0,     266400,     266400,        0,   622080, 0xbc3cf717
0,     270000,     270000,        0,   622080, 0xb70b01a9
0,     273600,     273600,        0,   622080, 0x0109f125
0,     277200,     277200,        0,   622080, 0xcb3a371f
0,     280800,     280800,        0,   622080, 0x230c373f
0,     284400,     284400,        0,   622080, 0x82dfb1f2
